<?xml version="1.0" encoding="UTF-8" standalone="no"?>
<!DOCTYPE svg PUBLIC "-//W3C//DTD SVG 1.1//EN"
 "http://www.w3.org/Graphics/SVG/1.1/DTD/svg11.dtd">
<!-- Generated by graphviz version 2.40.1 (20161225.0304)
 -->
<!-- Title: oneDegreeRelationshipsDiagram Pages: 1 -->
<svg width="204pt" height="118pt"
 viewBox="0.00 0.00 204.00 118.20" xmlns="http://www.w3.org/2000/svg" xmlns:xlink="http://www.w3.org/1999/xlink">
<g id="graph0" class="graph" transform="scale(1 1) rotate(0) translate(4 114.2)">
<title>oneDegreeRelationshipsDiagram</title>
<polygon fill="#ffffff" stroke="transparent" points="-4,4 -4,-114.2 200,-114.2 200,4 -4,4"/>
<text text-anchor="middle" x="72.4936" y="-7.3" font-family="Helvetica,sans-Serif" font-size="11.00" fill="#000000">Generated by SchemaSpy</text>
<!-- alembic_version -->
<g id="node1" class="node">
<title>alembic_version</title>
<g id="a_node1"><a xlink:href="../../tables/alembic_version.html" xlink:title="alembic_version" target="_top">
<polygon fill="#ffffff" stroke="transparent" points="8,-38.2 8,-106.2 188,-106.2 188,-38.2 8,-38.2"/>
<polygon fill="#f5f5f5" stroke="transparent" points="10,-81.2 10,-104.2 186,-104.2 186,-81.2 10,-81.2"/>
<polygon fill="none" stroke="#000000" points="10,-81.2 10,-104.2 186,-104.2 186,-81.2 10,-81.2"/>
<text text-anchor="start" x="15" y="-89.8" font-family="Helvetica,sans-Serif" font-weight="bold" font-size="11.00" fill="#000000">alembic_version</text>
<text text-anchor="start" x="151.0437" y="-89.3" font-family="Helvetica,sans-Serif" font-size="11.00" fill="#000000">[table]</text>
<polygon fill="none" stroke="#000000" points="10,-59.2 10,-81.2 125,-81.2 125,-59.2 10,-59.2"/>
<image xlink:href="../../images/primaryKeys.png" width="11px" height="12px" preserveAspectRatio="xMinYMin meet" x="15" y="-76.2"/>
<text text-anchor="start" x="30" y="-66.3" font-family="Helvetica,sans-Serif" font-size="11.00" fill="#000000">version_num</text>
<polygon fill="none" stroke="#000000" points="125,-59.2 125,-81.2 186,-81.2 186,-59.2 125,-59.2"/>
<text text-anchor="start" x="127.994" y="-66.9" font-family="Helvetica,sans-Serif" font-size="11.00" fill="#000000">varchar[32]</text>
<polygon fill="#ffffff" stroke="transparent" points="10,-40.2 10,-59.2 72,-59.2 72,-40.2 10,-40.2"/>
<polygon fill="none" stroke="#000000" points="10,-40.2 10,-59.2 72,-59.2 72,-40.2 10,-40.2"/>
<text text-anchor="start" x="13" y="-46.3" font-family="Helvetica,sans-Serif" font-size="11.00" fill="#000000">&lt; 0</text>
<polygon fill="#ffffff" stroke="transparent" points="72,-40.2 72,-59.2 125,-59.2 125,-40.2 72,-40.2"/>
<polygon fill="none" stroke="#000000" points="72,-40.2 72,-59.2 125,-59.2 125,-40.2 72,-40.2"/>
<text text-anchor="start" x="115.8862" y="-46.3" font-family="Helvetica,sans-Serif" font-size="11.00" fill="#000000"> &#160;</text>
<polygon fill="#ffffff" stroke="transparent" points="125,-40.2 125,-59.2 186,-59.2 186,-40.2 125,-40.2"/>
<polygon fill="none" stroke="#000000" points="125,-40.2 125,-59.2 186,-59.2 186,-40.2 125,-40.2"/>
<text text-anchor="start" x="167.4053" y="-46.3" font-family="Helvetica,sans-Serif" font-size="11.00" fill="#000000">0 &gt;</text>
<polygon fill="none" stroke="#000000" stroke-width="2" points="9,-39.2 9,-105.2 187,-105.2 187,-39.2 9,-39.2"/>
</a>
</g>
</g>
</g>
</svg>
