<?xml version="1.0" encoding="UTF-8" standalone="no"?>
<!DOCTYPE svg PUBLIC "-//W3C//DTD SVG 1.1//EN"
 "http://www.w3.org/Graphics/SVG/1.1/DTD/svg11.dtd">
<!-- Generated by graphviz version 2.40.1 (20161225.0304)
 -->
<!-- Title: twoDegreesRelationshipsDiagram Pages: 1 -->
<svg width="630pt" height="616pt"
 viewBox="0.00 0.00 630.00 616.24" xmlns="http://www.w3.org/2000/svg" xmlns:xlink="http://www.w3.org/1999/xlink">
<g id="graph0" class="graph" transform="scale(1 1) rotate(0) translate(4 612.2358)">
<title>twoDegreesRelationshipsDiagram</title>
<polygon fill="#ffffff" stroke="transparent" points="-4,4 -4,-612.2358 626,-612.2358 626,4 -4,4"/>
<text text-anchor="middle" x="72.4936" y="-7.3" font-family="Helvetica,sans-Serif" font-size="11.00" fill="#000000">Generated by SchemaSpy</text>
<!-- activities -->
<g id="node1" class="node">
<title>activities</title>
<g id="a_node1"><a xlink:href="../../tables/activities.html" xlink:title="activities" target="_top">
<polygon fill="#ffffff" stroke="transparent" points="394,-477.2358 394,-604.2358 484,-604.2358 484,-477.2358 394,-477.2358"/>
<polygon fill="#f5f5f5" stroke="transparent" points="394,-580.7358 394,-603.7358 484,-603.7358 484,-580.7358 394,-580.7358"/>
<polygon fill="none" stroke="#000000" points="394,-580.7358 394,-603.7358 484,-603.7358 484,-580.7358 394,-580.7358"/>
<text text-anchor="start" x="399" y="-589.3358" font-family="Helvetica,sans-Serif" font-weight="bold" font-size="11.00" fill="#000000">activities</text>
<text text-anchor="start" x="449.5219" y="-588.8358" font-family="Helvetica,sans-Serif" font-size="11.00" fill="#000000">[table]</text>
<polygon fill="none" stroke="#000000" points="394,-558.7358 394,-580.7358 484,-580.7358 484,-558.7358 394,-558.7358"/>
<image xlink:href="../../images/primaryKeys.png" width="11px" height="12px" preserveAspectRatio="xMinYMin meet" x="399" y="-575.736"/>
<text text-anchor="start" x="416" y="-565.8358" font-family="Helvetica,sans-Serif" font-size="11.00" fill="#000000">id</text>
<polygon fill="#ffffff" stroke="transparent" points="394,-536.7358 394,-558.7358 484,-558.7358 484,-536.7358 394,-536.7358"/>
<polygon fill="none" stroke="#000000" points="394,-536.7358 394,-558.7358 484,-558.7358 484,-536.7358 394,-536.7358"/>
<image xlink:href="../../images/foreignKeys.png" width="11px" height="12px" preserveAspectRatio="xMinYMin meet" x="399" y="-553.736"/>
<text text-anchor="start" x="416" y="-543.8358" font-family="Helvetica,sans-Serif" font-size="11.00" fill="#000000">dataset_id</text>
<polygon fill="#ffffff" stroke="transparent" points="394,-514.7358 394,-536.7358 484,-536.7358 484,-514.7358 394,-514.7358"/>
<polygon fill="none" stroke="#000000" points="394,-514.7358 394,-536.7358 484,-536.7358 484,-514.7358 394,-514.7358"/>
<text text-anchor="start" x="416" y="-521.8358" font-family="Helvetica,sans-Serif" font-size="11.00" fill="#000000">action_type</text>
<polygon fill="none" stroke="#000000" points="394,-495.7358 394,-514.7358 484,-514.7358 484,-495.7358 394,-495.7358"/>
<text text-anchor="start" x="397" y="-501.8358" font-family="Helvetica,sans-Serif" font-size="11.00" fill="#000000">...</text>
<polygon fill="#ffffff" stroke="transparent" points="394,-476.7358 394,-495.7358 437,-495.7358 437,-476.7358 394,-476.7358"/>
<polygon fill="none" stroke="#000000" points="394,-476.7358 394,-495.7358 437,-495.7358 437,-476.7358 394,-476.7358"/>
<text text-anchor="start" x="397" y="-482.8358" font-family="Helvetica,sans-Serif" font-size="11.00" fill="#000000">&lt; 1</text>
<polygon fill="#ffffff" stroke="transparent" points="437,-476.7358 437,-495.7358 460,-495.7358 460,-476.7358 437,-476.7358"/>
<polygon fill="none" stroke="#000000" points="437,-476.7358 437,-495.7358 460,-495.7358 460,-476.7358 437,-476.7358"/>
<text text-anchor="start" x="450.8862" y="-482.8358" font-family="Helvetica,sans-Serif" font-size="11.00" fill="#000000"> &#160;</text>
<polygon fill="#ffffff" stroke="transparent" points="460,-476.7358 460,-495.7358 484,-495.7358 484,-476.7358 460,-476.7358"/>
<polygon fill="none" stroke="#000000" points="460,-476.7358 460,-495.7358 484,-495.7358 484,-476.7358 460,-476.7358"/>
<text text-anchor="start" x="474.8862" y="-482.8358" font-family="Helvetica,sans-Serif" font-size="11.00" fill="#000000"> &#160;</text>
</a>
</g>
</g>
<!-- datasets -->
<g id="node2" class="node">
<title>datasets</title>
<g id="a_node2"><a xlink:href="../../tables/datasets.html" xlink:title="datasets" target="_top">
<polygon fill="#ffffff" stroke="transparent" points="128,-248.7358 128,-536.7358 345,-536.7358 345,-248.7358 128,-248.7358"/>
<polygon fill="#f5f5f5" stroke="transparent" points="130.5,-511.7358 130.5,-534.7358 343.5,-534.7358 343.5,-511.7358 130.5,-511.7358"/>
<polygon fill="none" stroke="#000000" points="130.5,-511.7358 130.5,-534.7358 343.5,-534.7358 343.5,-511.7358 130.5,-511.7358"/>
<text text-anchor="start" x="135.5" y="-520.3358" font-family="Helvetica,sans-Serif" font-weight="bold" font-size="11.00" fill="#000000">datasets</text>
<text text-anchor="start" x="308.5437" y="-519.8358" font-family="Helvetica,sans-Serif" font-size="11.00" fill="#000000">[table]</text>
<polygon fill="none" stroke="#000000" points="130.5,-489.7358 130.5,-511.7358 249.5,-511.7358 249.5,-489.7358 130.5,-489.7358"/>
<image xlink:href="../../images/primaryKeys.png" width="11px" height="12px" preserveAspectRatio="xMinYMin meet" x="135.5" y="-506.736"/>
<text text-anchor="start" x="150.5" y="-496.8358" font-family="Helvetica,sans-Serif" font-size="11.00" fill="#000000">id</text>
<polygon fill="none" stroke="#000000" points="249.5,-489.7358 249.5,-511.7358 343.5,-511.7358 343.5,-489.7358 249.5,-489.7358"/>
<text text-anchor="start" x="252.4758" y="-497.4358" font-family="Helvetica,sans-Serif" font-size="11.00" fill="#000000">uuid[2147483647]</text>
<polygon fill="none" stroke="#000000" points="130.5,-467.7358 130.5,-489.7358 249.5,-489.7358 249.5,-467.7358 130.5,-467.7358"/>
<image xlink:href="../../images/foreignKeys.png" width="11px" height="12px" preserveAspectRatio="xMinYMin meet" x="135.5" y="-484.736"/>
<text text-anchor="start" x="150.5" y="-474.8358" font-family="Helvetica,sans-Serif" font-size="11.00" fill="#000000">user_id</text>
<polygon fill="none" stroke="#000000" points="249.5,-467.7358 249.5,-489.7358 343.5,-489.7358 343.5,-467.7358 249.5,-467.7358"/>
<text text-anchor="start" x="252.4758" y="-475.4358" font-family="Helvetica,sans-Serif" font-size="11.00" fill="#000000">uuid[2147483647]</text>
<polygon fill="none" stroke="#000000" points="130.5,-445.7358 130.5,-467.7358 249.5,-467.7358 249.5,-445.7358 130.5,-445.7358"/>
<text text-anchor="start" x="150.5" y="-452.8358" font-family="Helvetica,sans-Serif" font-size="11.00" fill="#000000">filename</text>
<polygon fill="none" stroke="#000000" points="249.5,-445.7358 249.5,-467.7358 343.5,-467.7358 343.5,-445.7358 249.5,-445.7358"/>
<text text-anchor="start" x="252.5" y="-453.4358" font-family="Helvetica,sans-Serif" font-size="11.00" fill="#000000">varchar[255]</text>
<polygon fill="none" stroke="#000000" points="130.5,-423.7358 130.5,-445.7358 249.5,-445.7358 249.5,-423.7358 130.5,-423.7358"/>
<text text-anchor="start" x="150.5" y="-430.8358" font-family="Helvetica,sans-Serif" font-size="11.00" fill="#000000">original_filename</text>
<polygon fill="none" stroke="#000000" points="249.5,-423.7358 249.5,-445.7358 343.5,-445.7358 343.5,-423.7358 249.5,-423.7358"/>
<text text-anchor="start" x="252.5" y="-431.4358" font-family="Helvetica,sans-Serif" font-size="11.00" fill="#000000">varchar[255]</text>
<polygon fill="none" stroke="#000000" points="130.5,-401.7358 130.5,-423.7358 249.5,-423.7358 249.5,-401.7358 130.5,-401.7358"/>
<text text-anchor="start" x="150.5" y="-408.8358" font-family="Helvetica,sans-Serif" font-size="11.00" fill="#000000">file_size</text>
<polygon fill="none" stroke="#000000" points="249.5,-401.7358 249.5,-423.7358 343.5,-423.7358 343.5,-401.7358 249.5,-401.7358"/>
<text text-anchor="start" x="252.5" y="-409.4358" font-family="Helvetica,sans-Serif" font-size="11.00" fill="#000000">int8[19]</text>
<polygon fill="none" stroke="#000000" points="130.5,-379.7358 130.5,-401.7358 249.5,-401.7358 249.5,-379.7358 130.5,-379.7358"/>
<text text-anchor="start" x="150.5" y="-386.8358" font-family="Helvetica,sans-Serif" font-size="11.00" fill="#000000">file_type</text>
<polygon fill="none" stroke="#000000" points="249.5,-379.7358 249.5,-401.7358 343.5,-401.7358 343.5,-379.7358 249.5,-379.7358"/>
<text text-anchor="start" x="252.5" y="-387.4358" font-family="Helvetica,sans-Serif" font-size="11.00" fill="#000000">varchar[50]</text>
<polygon fill="none" stroke="#000000" points="130.5,-357.7358 130.5,-379.7358 249.5,-379.7358 249.5,-357.7358 130.5,-357.7358"/>
<text text-anchor="start" x="150.5" y="-364.8358" font-family="Helvetica,sans-Serif" font-size="11.00" fill="#000000">row_count</text>
<polygon fill="none" stroke="#000000" points="249.5,-357.7358 249.5,-379.7358 343.5,-379.7358 343.5,-357.7358 249.5,-357.7358"/>
<text text-anchor="start" x="252.5" y="-365.4358" font-family="Helvetica,sans-Serif" font-size="11.00" fill="#000000">int4[10]</text>
<polygon fill="none" stroke="#000000" points="130.5,-335.7358 130.5,-357.7358 249.5,-357.7358 249.5,-335.7358 130.5,-335.7358"/>
<text text-anchor="start" x="150.5" y="-342.8358" font-family="Helvetica,sans-Serif" font-size="11.00" fill="#000000">column_count</text>
<polygon fill="none" stroke="#000000" points="249.5,-335.7358 249.5,-357.7358 343.5,-357.7358 343.5,-335.7358 249.5,-335.7358"/>
<text text-anchor="start" x="252.5" y="-343.4358" font-family="Helvetica,sans-Serif" font-size="11.00" fill="#000000">int4[10]</text>
<polygon fill="none" stroke="#000000" points="130.5,-313.7358 130.5,-335.7358 249.5,-335.7358 249.5,-313.7358 130.5,-313.7358"/>
<text text-anchor="start" x="150.5" y="-320.8358" font-family="Helvetica,sans-Serif" font-size="11.00" fill="#000000">storage_path</text>
<polygon fill="none" stroke="#000000" points="249.5,-313.7358 249.5,-335.7358 343.5,-335.7358 343.5,-313.7358 249.5,-313.7358"/>
<text text-anchor="start" x="252.5" y="-321.4358" font-family="Helvetica,sans-Serif" font-size="11.00" fill="#000000">varchar[500]</text>
<polygon fill="none" stroke="#000000" points="130.5,-291.7358 130.5,-313.7358 249.5,-313.7358 249.5,-291.7358 130.5,-291.7358"/>
<text text-anchor="start" x="150.5" y="-298.8358" font-family="Helvetica,sans-Serif" font-size="11.00" fill="#000000">metadata</text>
<polygon fill="none" stroke="#000000" points="249.5,-291.7358 249.5,-313.7358 343.5,-313.7358 343.5,-291.7358 249.5,-291.7358"/>
<text text-anchor="start" x="252.5" y="-299.4358" font-family="Helvetica,sans-Serif" font-size="11.00" fill="#000000">json[2147483647]</text>
<polygon fill="none" stroke="#000000" points="130.5,-269.7358 130.5,-291.7358 249.5,-291.7358 249.5,-269.7358 130.5,-269.7358"/>
<text text-anchor="start" x="150.5" y="-276.8358" font-family="Helvetica,sans-Serif" font-size="11.00" fill="#000000">created_at</text>
<polygon fill="none" stroke="#000000" points="249.5,-269.7358 249.5,-291.7358 343.5,-291.7358 343.5,-269.7358 249.5,-269.7358"/>
<text text-anchor="start" x="252.5" y="-277.4358" font-family="Helvetica,sans-Serif" font-size="11.00" fill="#000000">timestamptz[35,6]</text>
<polygon fill="#ffffff" stroke="transparent" points="130.5,-250.7358 130.5,-269.7358 194.5,-269.7358 194.5,-250.7358 130.5,-250.7358"/>
<polygon fill="none" stroke="#000000" points="130.5,-250.7358 130.5,-269.7358 194.5,-269.7358 194.5,-250.7358 130.5,-250.7358"/>
<text text-anchor="start" x="133.5" y="-256.8358" font-family="Helvetica,sans-Serif" font-size="11.00" fill="#000000">&lt; 1</text>
<polygon fill="#ffffff" stroke="transparent" points="194.5,-250.7358 194.5,-269.7358 249.5,-269.7358 249.5,-250.7358 194.5,-250.7358"/>
<polygon fill="none" stroke="#000000" points="194.5,-250.7358 194.5,-269.7358 249.5,-269.7358 249.5,-250.7358 194.5,-250.7358"/>
<text text-anchor="start" x="240.3862" y="-256.8358" font-family="Helvetica,sans-Serif" font-size="11.00" fill="#000000"> &#160;</text>
<polygon fill="#ffffff" stroke="transparent" points="249.5,-250.7358 249.5,-269.7358 343.5,-269.7358 343.5,-250.7358 249.5,-250.7358"/>
<polygon fill="none" stroke="#000000" points="249.5,-250.7358 249.5,-269.7358 343.5,-269.7358 343.5,-250.7358 249.5,-250.7358"/>
<text text-anchor="start" x="324.9053" y="-256.8358" font-family="Helvetica,sans-Serif" font-size="11.00" fill="#000000">3 &gt;</text>
<polygon fill="none" stroke="#000000" stroke-width="2" points="129,-249.7358 129,-535.7358 344,-535.7358 344,-249.7358 129,-249.7358"/>
</a>
</g>
</g>
<!-- activities&#45;&gt;datasets -->
<g id="edge1" class="edge">
<title>activities:w&#45;&gt;datasets:e</title>
<path fill="none" stroke="#000000" d="M380.1638,-543.0575C365.9839,-531.1694 368.1725,-500.7358 343.5,-500.7358"/>
<polygon fill="#000000" stroke="#000000" points="386.4215,-545.1733 392.8469,-551.1462 390.2107,-546.4546 394,-547.7358 394,-547.7358 394,-547.7358 390.2107,-546.4546 395.1531,-544.3255 386.4215,-545.1733 386.4215,-545.1733"/>
<ellipse fill="none" stroke="#000000" cx="383.3901" cy="-544.1483" rx="3.2" ry="3.2"/>
</g>
<!-- users -->
<g id="node4" class="node">
<title>users</title>
<g id="a_node4"><a xlink:href="../../tables/users.html" xlink:title="users" target="_top">
<polygon fill="#ffffff" stroke="transparent" points="8,-122.2358 8,-183.2358 79,-183.2358 79,-122.2358 8,-122.2358"/>
<polygon fill="#f5f5f5" stroke="transparent" points="8.5,-159.7358 8.5,-182.7358 79.5,-182.7358 79.5,-159.7358 8.5,-159.7358"/>
<polygon fill="none" stroke="#000000" points="8.5,-159.7358 8.5,-182.7358 79.5,-182.7358 79.5,-159.7358 8.5,-159.7358"/>
<text text-anchor="start" x="13.5" y="-168.3358" font-family="Helvetica,sans-Serif" font-weight="bold" font-size="11.00" fill="#000000">users</text>
<text text-anchor="start" x="45.0219" y="-167.8358" font-family="Helvetica,sans-Serif" font-size="11.00" fill="#000000">[table]</text>
<polygon fill="none" stroke="#000000" points="8.5,-140.7358 8.5,-159.7358 79.5,-159.7358 79.5,-140.7358 8.5,-140.7358"/>
<text text-anchor="start" x="11.5" y="-146.8358" font-family="Helvetica,sans-Serif" font-size="11.00" fill="#000000">...</text>
<polygon fill="#ffffff" stroke="transparent" points="8.5,-121.7358 8.5,-140.7358 20.5,-140.7358 20.5,-121.7358 8.5,-121.7358"/>
<polygon fill="none" stroke="#000000" points="8.5,-121.7358 8.5,-140.7358 20.5,-140.7358 20.5,-121.7358 8.5,-121.7358"/>
<text text-anchor="start" x="11.4431" y="-127.8358" font-family="Helvetica,sans-Serif" font-size="11.00" fill="#000000"> &#160;</text>
<polygon fill="#ffffff" stroke="transparent" points="20.5,-121.7358 20.5,-140.7358 57.5,-140.7358 57.5,-121.7358 20.5,-121.7358"/>
<polygon fill="none" stroke="#000000" points="20.5,-121.7358 20.5,-140.7358 57.5,-140.7358 57.5,-121.7358 20.5,-121.7358"/>
<text text-anchor="start" x="23.4163" y="-127.8358" font-family="Helvetica,sans-Serif" font-size="11.00" fill="#000000">٤ rows</text>
<polygon fill="#ffffff" stroke="transparent" points="57.5,-121.7358 57.5,-140.7358 79.5,-140.7358 79.5,-121.7358 57.5,-121.7358"/>
<polygon fill="none" stroke="#000000" points="57.5,-121.7358 57.5,-140.7358 79.5,-140.7358 79.5,-121.7358 57.5,-121.7358"/>
<text text-anchor="start" x="60.9053" y="-127.8358" font-family="Helvetica,sans-Serif" font-size="11.00" fill="#000000">4 &gt;</text>
</a>
</g>
</g>
<!-- datasets&#45;&gt;users -->
<g id="edge4" class="edge">
<title>datasets:w&#45;&gt;users:e</title>
<path fill="none" stroke="#000000" d="M116.5728,-474.7293C67.5335,-445.5213 50.4782,-264.3325 45.3944,-187.3149"/>
<polygon fill="#000000" stroke="#000000" points="122.8118,-476.5241 129.5047,-482.1955 126.6559,-477.63 130.5,-478.7358 130.5,-478.7358 130.5,-478.7358 126.6559,-477.63 131.4953,-475.2761 122.8118,-476.5241 122.8118,-476.5241"/>
<ellipse fill="none" stroke="#000000" cx="119.7365" cy="-475.6394" rx="3.2" ry="3.2"/>
</g>
<!-- cv_fine_tune_jobs -->
<g id="node3" class="node">
<title>cv_fine_tune_jobs</title>
<g id="a_node3"><a xlink:href="../../tables/cv_fine_tune_jobs.html" xlink:title="cv_fine_tune_jobs" target="_top">
<polygon fill="#ffffff" stroke="transparent" points="165,-166.2358 165,-227.2358 308,-227.2358 308,-166.2358 165,-166.2358"/>
<polygon fill="#f5f5f5" stroke="transparent" points="165.5,-203.7358 165.5,-226.7358 308.5,-226.7358 308.5,-203.7358 165.5,-203.7358"/>
<polygon fill="none" stroke="#000000" points="165.5,-203.7358 165.5,-226.7358 308.5,-226.7358 308.5,-203.7358 165.5,-203.7358"/>
<text text-anchor="start" x="170.5" y="-212.3358" font-family="Helvetica,sans-Serif" font-weight="bold" font-size="11.00" fill="#000000">cv_fine_tune_jobs</text>
<text text-anchor="start" x="274.0219" y="-211.8358" font-family="Helvetica,sans-Serif" font-size="11.00" fill="#000000">[table]</text>
<polygon fill="none" stroke="#000000" points="165.5,-184.7358 165.5,-203.7358 308.5,-203.7358 308.5,-184.7358 165.5,-184.7358"/>
<text text-anchor="start" x="168.5" y="-190.8358" font-family="Helvetica,sans-Serif" font-size="11.00" fill="#000000">...</text>
<polygon fill="#ffffff" stroke="transparent" points="165.5,-165.7358 165.5,-184.7358 235.5,-184.7358 235.5,-165.7358 165.5,-165.7358"/>
<polygon fill="none" stroke="#000000" points="165.5,-165.7358 165.5,-184.7358 235.5,-184.7358 235.5,-165.7358 165.5,-165.7358"/>
<text text-anchor="start" x="168.5" y="-171.8358" font-family="Helvetica,sans-Serif" font-size="11.00" fill="#000000">&lt; 1</text>
<polygon fill="#ffffff" stroke="transparent" points="235.5,-165.7358 235.5,-184.7358 271.5,-184.7358 271.5,-165.7358 235.5,-165.7358"/>
<polygon fill="none" stroke="#000000" points="235.5,-165.7358 235.5,-184.7358 271.5,-184.7358 271.5,-165.7358 235.5,-165.7358"/>
<text text-anchor="start" x="262.3862" y="-171.8358" font-family="Helvetica,sans-Serif" font-size="11.00" fill="#000000"> &#160;</text>
<polygon fill="#ffffff" stroke="transparent" points="271.5,-165.7358 271.5,-184.7358 308.5,-184.7358 308.5,-165.7358 271.5,-165.7358"/>
<polygon fill="none" stroke="#000000" points="271.5,-165.7358 271.5,-184.7358 308.5,-184.7358 308.5,-165.7358 271.5,-165.7358"/>
<text text-anchor="start" x="299.3862" y="-171.8358" font-family="Helvetica,sans-Serif" font-size="11.00" fill="#000000"> &#160;</text>
</a>
</g>
</g>
<!-- cv_fine_tune_jobs&#45;&gt;users -->
<g id="edge2" class="edge">
<title>cv_fine_tune_jobs:w&#45;&gt;users:e</title>
<path fill="none" stroke="#000000" d="M150.8664,-192.9055C128.4831,-190.4541 105.8803,-182.9239 87.2254,-175.0355"/>
<polygon fill="#000000" stroke="#000000" points="157.5128,-193.2826 165.296,-197.33 161.5064,-193.5092 165.5,-193.7358 165.5,-193.7358 165.5,-193.7358 161.5064,-193.5092 165.704,-190.1416 157.5128,-193.2826 157.5128,-193.2826"/>
<ellipse fill="none" stroke="#000000" cx="154.318" cy="-193.1013" rx="3.2" ry="3.2"/>
</g>
<!-- cv_fine_tuned_models -->
<g id="node5" class="node">
<title>cv_fine_tuned_models</title>
<g id="a_node5"><a xlink:href="../../tables/cv_fine_tuned_models.html" xlink:title="cv_fine_tuned_models" target="_top">
<polygon fill="#ffffff" stroke="transparent" points="152.5,-84.2358 152.5,-145.2358 320.5,-145.2358 320.5,-84.2358 152.5,-84.2358"/>
<polygon fill="#f5f5f5" stroke="transparent" points="152.5,-121.7358 152.5,-144.7358 320.5,-144.7358 320.5,-121.7358 152.5,-121.7358"/>
<polygon fill="none" stroke="#000000" points="152.5,-121.7358 152.5,-144.7358 320.5,-144.7358 320.5,-121.7358 152.5,-121.7358"/>
<text text-anchor="start" x="157.5" y="-130.3358" font-family="Helvetica,sans-Serif" font-weight="bold" font-size="11.00" fill="#000000">cv_fine_tuned_models</text>
<text text-anchor="start" x="286.0219" y="-129.8358" font-family="Helvetica,sans-Serif" font-size="11.00" fill="#000000">[table]</text>
<polygon fill="none" stroke="#000000" points="152.5,-102.7358 152.5,-121.7358 320.5,-121.7358 320.5,-102.7358 152.5,-102.7358"/>
<text text-anchor="start" x="155.5" y="-108.8358" font-family="Helvetica,sans-Serif" font-size="11.00" fill="#000000">...</text>
<polygon fill="#ffffff" stroke="transparent" points="152.5,-83.7358 152.5,-102.7358 234.5,-102.7358 234.5,-83.7358 152.5,-83.7358"/>
<polygon fill="none" stroke="#000000" points="152.5,-83.7358 152.5,-102.7358 234.5,-102.7358 234.5,-83.7358 152.5,-83.7358"/>
<text text-anchor="start" x="155.5" y="-89.8358" font-family="Helvetica,sans-Serif" font-size="11.00" fill="#000000">&lt; 1</text>
<polygon fill="#ffffff" stroke="transparent" points="234.5,-83.7358 234.5,-102.7358 277.5,-102.7358 277.5,-83.7358 234.5,-83.7358"/>
<polygon fill="none" stroke="#000000" points="234.5,-83.7358 234.5,-102.7358 277.5,-102.7358 277.5,-83.7358 234.5,-83.7358"/>
<text text-anchor="start" x="268.3862" y="-89.8358" font-family="Helvetica,sans-Serif" font-size="11.00" fill="#000000"> &#160;</text>
<polygon fill="#ffffff" stroke="transparent" points="277.5,-83.7358 277.5,-102.7358 320.5,-102.7358 320.5,-83.7358 277.5,-83.7358"/>
<polygon fill="none" stroke="#000000" points="277.5,-83.7358 277.5,-102.7358 320.5,-102.7358 320.5,-83.7358 277.5,-83.7358"/>
<text text-anchor="start" x="311.3862" y="-89.8358" font-family="Helvetica,sans-Serif" font-size="11.00" fill="#000000"> &#160;</text>
</a>
</g>
</g>
<!-- cv_fine_tuned_models&#45;&gt;users -->
<g id="edge3" class="edge">
<title>cv_fine_tuned_models:w&#45;&gt;users:e</title>
<path fill="none" stroke="#000000" d="M137.9434,-112.7369C120.1603,-115.0952 102.419,-121.32 87.1943,-128.1759"/>
<polygon fill="#000000" stroke="#000000" points="144.5189,-112.2848 152.747,-115.3273 148.5094,-112.0103 152.5,-111.7358 152.5,-111.7358 152.5,-111.7358 148.5094,-112.0103 152.253,-108.1443 144.5189,-112.2848 144.5189,-112.2848"/>
<ellipse fill="none" stroke="#000000" cx="141.3264" cy="-112.5043" rx="3.2" ry="3.2"/>
</g>
<!-- jobs -->
<g id="node6" class="node">
<title>jobs</title>
<g id="a_node6"><a xlink:href="../../tables/jobs.html" xlink:title="jobs" target="_top">
<polygon fill="#ffffff" stroke="transparent" points="395,-367.2358 395,-428.2358 483,-428.2358 483,-367.2358 395,-367.2358"/>
<polygon fill="#f5f5f5" stroke="transparent" points="395,-404.7358 395,-427.7358 483,-427.7358 483,-404.7358 395,-404.7358"/>
<polygon fill="none" stroke="#000000" points="395,-404.7358 395,-427.7358 483,-427.7358 483,-404.7358 395,-404.7358"/>
<text text-anchor="start" x="399.9147" y="-413.3358" font-family="Helvetica,sans-Serif" font-weight="bold" font-size="11.00" fill="#000000">jobs</text>
<text text-anchor="start" x="448.0437" y="-412.8358" font-family="Helvetica,sans-Serif" font-size="11.00" fill="#000000">[table]</text>
<polygon fill="none" stroke="#000000" points="395,-385.7358 395,-404.7358 483,-404.7358 483,-385.7358 395,-385.7358"/>
<text text-anchor="start" x="398" y="-391.8358" font-family="Helvetica,sans-Serif" font-size="11.00" fill="#000000">...</text>
<polygon fill="#ffffff" stroke="transparent" points="395,-366.7358 395,-385.7358 416,-385.7358 416,-366.7358 395,-366.7358"/>
<polygon fill="none" stroke="#000000" points="395,-366.7358 395,-385.7358 416,-385.7358 416,-366.7358 395,-366.7358"/>
<text text-anchor="start" x="397.7027" y="-372.8358" font-family="Helvetica,sans-Serif" font-size="11.00" fill="#000000">&lt; 2</text>
<polygon fill="#ffffff" stroke="transparent" points="416,-366.7358 416,-385.7358 462,-385.7358 462,-366.7358 416,-366.7358"/>
<polygon fill="none" stroke="#000000" points="416,-366.7358 416,-385.7358 462,-385.7358 462,-366.7358 416,-366.7358"/>
<text text-anchor="start" x="418.8304" y="-372.8358" font-family="Helvetica,sans-Serif" font-size="11.00" fill="#000000">٢٤ rows</text>
<polygon fill="#ffffff" stroke="transparent" points="462,-366.7358 462,-385.7358 483,-385.7358 483,-366.7358 462,-366.7358"/>
<polygon fill="none" stroke="#000000" points="462,-366.7358 462,-385.7358 483,-385.7358 483,-366.7358 462,-366.7358"/>
<text text-anchor="start" x="464.7027" y="-372.8358" font-family="Helvetica,sans-Serif" font-size="11.00" fill="#000000">1 &gt;</text>
</a>
</g>
</g>
<!-- jobs&#45;&gt;datasets -->
<g id="edge5" class="edge">
<title>jobs:w&#45;&gt;datasets:e</title>
<path fill="none" stroke="#000000" d="M386.3014,-442.4128C386.2007,-442.5205 386.1002,-442.6281 386,-442.7358 364.2256,-466.1272 375.4575,-500.7358 343.5,-500.7358"/>
<polygon fill="#000000" stroke="#000000" points="390.5701,-438.1479 398.7739,-435.0401 393.3997,-435.3206 396.2294,-432.4934 396.2294,-432.4934 396.2294,-432.4934 393.3997,-435.3206 393.6849,-429.9467 390.5701,-438.1479 390.5701,-438.1479"/>
<ellipse fill="none" stroke="#000000" cx="388.3064" cy="-440.4096" rx="3.2" ry="3.2"/>
</g>
<!-- jobs&#45;&gt;users -->
<g id="edge6" class="edge">
<title>jobs:w&#45;&gt;users:e</title>
<path fill="none" stroke="#000000" d="M433.2467,-348.7276C422.4943,-266.6667 396.4268,-107.1396 353,-73.7358 270.918,-10.5987 215.3512,-33.3391 120,-73.7358 98.5532,-82.822 80.1739,-101.1898 66.8091,-117.929"/>
<polygon fill="#000000" stroke="#000000" points="434.0663,-355.1649 431.5057,-363.5555 434.5716,-359.1328 435.0769,-363.1008 435.0769,-363.1008 435.0769,-363.1008 434.5716,-359.1328 438.648,-362.646 434.0663,-355.1649 434.0663,-355.1649"/>
<ellipse fill="none" stroke="#000000" cx="433.6621" cy="-351.9905" rx="3.2" ry="3.2"/>
</g>
<!-- models -->
<g id="node7" class="node">
<title>models</title>
<g id="a_node7"><a xlink:href="../../tables/models.html" xlink:title="models" target="_top">
<polygon fill="#ffffff" stroke="transparent" points="533,-394.2358 533,-455.2358 614,-455.2358 614,-394.2358 533,-394.2358"/>
<polygon fill="#f5f5f5" stroke="transparent" points="533.5,-431.7358 533.5,-454.7358 614.5,-454.7358 614.5,-431.7358 533.5,-431.7358"/>
<polygon fill="none" stroke="#000000" points="533.5,-431.7358 533.5,-454.7358 614.5,-454.7358 614.5,-431.7358 533.5,-431.7358"/>
<text text-anchor="start" x="538.5" y="-440.3358" font-family="Helvetica,sans-Serif" font-weight="bold" font-size="11.00" fill="#000000">models</text>
<text text-anchor="start" x="580.0219" y="-439.8358" font-family="Helvetica,sans-Serif" font-size="11.00" fill="#000000">[table]</text>
<polygon fill="none" stroke="#000000" points="533.5,-412.7358 533.5,-431.7358 614.5,-431.7358 614.5,-412.7358 533.5,-412.7358"/>
<text text-anchor="start" x="536.5" y="-418.8358" font-family="Helvetica,sans-Serif" font-size="11.00" fill="#000000">...</text>
<polygon fill="#ffffff" stroke="transparent" points="533.5,-393.7358 533.5,-412.7358 572.5,-412.7358 572.5,-393.7358 533.5,-393.7358"/>
<polygon fill="none" stroke="#000000" points="533.5,-393.7358 533.5,-412.7358 572.5,-412.7358 572.5,-393.7358 533.5,-393.7358"/>
<text text-anchor="start" x="536.5" y="-399.8358" font-family="Helvetica,sans-Serif" font-size="11.00" fill="#000000">&lt; 2</text>
<polygon fill="#ffffff" stroke="transparent" points="572.5,-393.7358 572.5,-412.7358 593.5,-412.7358 593.5,-393.7358 572.5,-393.7358"/>
<polygon fill="none" stroke="#000000" points="572.5,-393.7358 572.5,-412.7358 593.5,-412.7358 593.5,-393.7358 572.5,-393.7358"/>
<text text-anchor="start" x="584.3862" y="-399.8358" font-family="Helvetica,sans-Serif" font-size="11.00" fill="#000000"> &#160;</text>
<polygon fill="#ffffff" stroke="transparent" points="593.5,-393.7358 593.5,-412.7358 614.5,-412.7358 614.5,-393.7358 593.5,-393.7358"/>
<polygon fill="none" stroke="#000000" points="593.5,-393.7358 593.5,-412.7358 614.5,-412.7358 614.5,-393.7358 593.5,-393.7358"/>
<text text-anchor="start" x="605.3862" y="-399.8358" font-family="Helvetica,sans-Serif" font-size="11.00" fill="#000000"> &#160;</text>
</a>
</g>
</g>
<!-- models&#45;&gt;datasets -->
<g id="edge7" class="edge">
<title>models:w&#45;&gt;datasets:e</title>
<path fill="none" stroke="#000000" d="M510.4502,-435.7043C464.9231,-444.2142 407.777,-456.282 386,-466.7358 364.1929,-477.2041 367.6896,-500.7358 343.5,-500.7358"/>
<polygon fill="#000000" stroke="#000000" points="516.8958,-434.5194 525.4149,-436.6136 520.8299,-433.7962 524.7639,-433.0729 524.7639,-433.0729 524.7639,-433.0729 520.8299,-433.7962 524.113,-429.5323 516.8958,-434.5194 516.8958,-434.5194"/>
<ellipse fill="none" stroke="#000000" cx="513.7485" cy="-435.098" rx="3.2" ry="3.2"/>
</g>
<!-- models&#45;&gt;jobs -->
<g id="edge8" class="edge">
<title>models:w&#45;&gt;jobs:e</title>
<path fill="none" stroke="#000000" d="M510.7504,-412.1393C504.1809,-410.8205 497.5538,-409.4901 491.1215,-408.1989"/>
<polygon fill="#000000" stroke="#000000" points="517.0989,-413.4136 524.2339,-418.5178 521.0207,-414.2009 524.9424,-414.9882 524.9424,-414.9882 524.9424,-414.9882 521.0207,-414.2009 525.651,-411.4586 517.0989,-413.4136 517.0989,-413.4136"/>
<ellipse fill="none" stroke="#000000" cx="513.9615" cy="-412.7838" rx="3.2" ry="3.2"/>
</g>
</g>
</svg>
